<svg xmlns="http://www.w3.org/2000/svg" width="1280" height="560" viewBox="0 0 1280 560">
  <defs>
    <filter id="shadow" x="-20%" y="-20%" width="140%" height="150%">
      <feDropShadow dx="0" dy="16" stdDeviation="20" flood-color="#00000080" flood-opacity="1"/>
    </filter>
    <linearGradient id="paper" x1="0" y1="0" x2="1" y2="1">
      <stop offset="0" stop-color="#111111"/>
      <stop offset="1" stop-color="#181818"/>
    </linearGradient>
    <style>
      .logo { font-family: "Playfair Display", Georgia, serif; font-weight: 700; }
      .ui { font-family: Inter, -apple-system, BlinkMacSystemFont, "Segoe UI", sans-serif; }
      .mono { font-family: "JetBrains Mono", ui-monospace, SFMono-Regular, Menlo, monospace; }
    </style>
  </defs>
  <rect width="1280" height="560" rx="0" fill="#111111"/>
  
      <rect x="38" y="38" width="1204" height="484" rx="8" fill="url(#paper)" stroke="#2A2A2A" filter="url(#shadow)"/>
      <g clip-path="url(#clip-70-68)">
    <clipPath id="clip-70-68"><rect x="70" y="68" width="1140" height="8" rx="4"/></clipPath>
    <rect x="70" y="68" width="163.85714285714286" height="8" fill="#CC2222"/><rect x="232.85714285714286" y="68" width="163.85714285714286" height="8" fill="#2A7A2A"/><rect x="395.7142857142857" y="68" width="163.85714285714286" height="8" fill="#D4A017"/><rect x="558.5714285714286" y="68" width="163.85714285714286" height="8" fill="#111111"/><rect x="721.4285714285714" y="68" width="163.85714285714286" height="8" fill="#CC2222"/><rect x="884.2857142857143" y="68" width="163.85714285714286" height="8" fill="#2A7A2A"/><rect x="1047.142857142857" y="68" width="163.85714285714286" height="8" fill="#DD9D13"/>
  </g>
      <text class="mono" x="78" y="128" font-size="12" fill="#999999">OFFICIAL GITHUB PROFILE</text>
      <g><text class="logo" x="78" y="226" font-size="86" fill="#CC2222">S</text><text class="logo" x="125.30000000000001" y="226" font-size="86" fill="#2A7A2A">c</text><text class="logo" x="165.72" y="226" font-size="86" fill="#D4A017">h</text><text class="logo" x="215.6" y="226" font-size="86" fill="#F5F5F5">o</text><text class="logo" x="264.62" y="226" font-size="86" fill="#CC2222">l</text><text class="logo" x="289.56" y="226" font-size="86" fill="#2A7A2A">a</text><text class="logo" x="334.28" y="226" font-size="86" fill="#D4A017">y</text></g>
      <text class="ui" x="82" y="282" font-size="24" font-weight="600" fill="#F5F5F5">AI academic workspace</text>
      <text class="ui" x="82" y="322" font-size="17" fill="#C8C8C8">Search, review, write, and organize research with agent-native workflows.</text>
      <g transform="translate(82 365)">
        <g>
    <rect x="0" y="0" width="88" height="28" rx="14" fill="#151515" stroke="#2A2A2A"/>
    <circle cx="15" cy="14" r="4" fill="#CC2222"/>
    <text class="mono" x="27" y="18" font-size="11" fill="#C8C8C8">SEARCH</text>
  </g>
        <g>
    <rect x="110" y="0" width="88" height="28" rx="14" fill="#151515" stroke="#2A2A2A"/>
    <circle cx="125" cy="14" r="4" fill="#2A7A2A"/>
    <text class="mono" x="137" y="18" font-size="11" fill="#C8C8C8">REVIEW</text>
  </g>
        <g>
    <rect x="220" y="0" width="79" height="28" rx="14" fill="#151515" stroke="#2A2A2A"/>
    <circle cx="235" cy="14" r="4" fill="#D4A017"/>
    <text class="mono" x="247" y="18" font-size="11" fill="#C8C8C8">PRISM</text>
  </g>
        <g>
    <rect x="322" y="0" width="97" height="28" rx="14" fill="#151515" stroke="#2A2A2A"/>
    <circle cx="337" cy="14" r="4" fill="#1A56DB"/>
    <text class="mono" x="349" y="18" font-size="11" fill="#C8C8C8">LIBRARY</text>
  </g>
      </g>
      <g transform="translate(720 116)">
        <rect x="0" y="0" width="418" height="288" rx="8" fill="#111111" stroke="#3D3D3D"/>
        <g clip-path="url(#clip-20-22)">
    <clipPath id="clip-20-22"><rect x="20" y="22" width="378" height="5" rx="2.5"/></clipPath>
    <rect x="20" y="22" width="55" height="5" fill="#CC2222"/><rect x="74" y="22" width="55" height="5" fill="#2A7A2A"/><rect x="128" y="22" width="55" height="5" fill="#D4A017"/><rect x="182" y="22" width="55" height="5" fill="#111111"/><rect x="236" y="22" width="55" height="5" fill="#CC2222"/><rect x="290" y="22" width="55" height="5" fill="#2A7A2A"/><rect x="344" y="22" width="55" height="5" fill="#DD9D13"/>
  </g>
        <rect x="30" y="58" width="182" height="18" rx="4" fill="#1F1F1F"/>
        <rect x="30" y="92" width="354" height="1" fill="#2A2A2A"/>
        <rect x="30" y="122" width="140" height="120" rx="6" fill="#181818" stroke="#2A2A2A"/>
        <rect x="190" y="122" width="194" height="38" rx="6" fill="#181818" stroke="#2A2A2A"/>
        <rect x="190" y="176" width="194" height="66" rx="6" fill="#181818" stroke="#2A2A2A"/>
        <circle cx="64" cy="157" r="17" fill="#CC2222"/>
        <path d="M57 157h14M64 150v14" stroke="#fff" stroke-width="4" stroke-linecap="round"/>
        <text class="ui" x="92" y="164" font-size="15" font-weight="700" fill="#F5F5F5">Paper intelligence</text>
        <text class="ui" x="204" y="146" font-size="13" fill="#C8C8C8">Peer review agent</text>
        <text class="ui" x="204" y="203" font-size="13" fill="#C8C8C8">LaTeX writing context</text>
        <path d="M52 273 C 128 250, 190 290, 256 260 S 342 238, 392 266" fill="none" stroke="#2A7A2A" stroke-width="4" stroke-linecap="round"/>
        <circle cx="52" cy="273" r="5" fill="#CC2222"/>
        <circle cx="256" cy="260" r="5" fill="#D4A017"/>
        <circle cx="392" cy="266" r="5" fill="#2A7A2A"/>
      </g>
      <text class="mono" x="78" y="466" font-size="12" fill="#999999">Go · React · TypeScript · MySQL · Redis · Docker · Agent Bridge</text>
    
</svg>
