<svg xmlns="http://www.w3.org/2000/svg" width="1280" height="430" viewBox="0 0 1280 430">
  <defs>
    <filter id="shadow" x="-20%" y="-20%" width="140%" height="150%">
      <feDropShadow dx="0" dy="16" stdDeviation="20" flood-color="#11111120" flood-opacity="1"/>
    </filter>
    <linearGradient id="paper" x1="0" y1="0" x2="1" y2="1">
      <stop offset="0" stop-color="#FFFFFF"/>
      <stop offset="1" stop-color="#FAFAFA"/>
    </linearGradient>
    <style>
      .logo { font-family: "Playfair Display", Georgia, serif; font-weight: 700; }
      .ui { font-family: Inter, -apple-system, BlinkMacSystemFont, "Segoe UI", sans-serif; }
      .mono { font-family: "JetBrains Mono", ui-monospace, SFMono-Regular, Menlo, monospace; }
    </style>
  </defs>
  <rect width="1280" height="430" fill="#FFFFFF"/>
  
      <rect x="38" y="36" width="1204" height="358" rx="8" fill="#FAFAFA" stroke="#E8E8E8"/>
      <text class="logo" x="72" y="92" font-size="36" fill="#111111">产品系统</text>
      <text class="ui" x="74" y="124" font-size="15" fill="#666666">五个研究场景，一个 Scholay 工作台。</text>
      <g>
    <clipPath id="clip-74-148-s"><rect x="74" y="148" width="320" height="5" rx="2.5"/></clipPath>
    <g clip-path="url(#clip-74-148-s)">
      <rect x="74" y="148" width="46.714285714285715" height="5" fill="#CC2222"/><rect x="119.71428571428572" y="148" width="46.714285714285715" height="5" fill="#2A7A2A"/><rect x="165.42857142857144" y="148" width="46.714285714285715" height="5" fill="#D4A017"/><rect x="211.14285714285714" y="148" width="46.714285714285715" height="5" fill="#111111"/><rect x="256.8571428571429" y="148" width="46.714285714285715" height="5" fill="#CC2222"/><rect x="302.57142857142856" y="148" width="46.714285714285715" height="5" fill="#2A7A2A"/><rect x="348.2857142857143" y="148" width="46.714285714285715" height="5" fill="#DD9D13"/>
      
    </g>
  </g>
      <g>
          <rect x="74" y="190" width="198" height="142" rx="8" fill="#FFFFFF" stroke="#E8E8E8"/>
          <circle cx="106" cy="224" r="10" fill="#CC2222"/>
          <text class="ui" x="128" y="225" font-size="14" font-weight="700" fill="#111111">
    <tspan x="128" dy="0">学术检索</tspan>
  </text>
          <text class="ui" x="96" y="278" font-size="11" font-weight="400" fill="#666666">
    <tspan x="96" dy="0">论文、作者、期刊与引用语境</tspan>
  </text>
        </g><g>
          <rect x="304" y="190" width="198" height="142" rx="8" fill="#FFFFFF" stroke="#E8E8E8"/>
          <circle cx="336" cy="224" r="10" fill="#2A7A2A"/>
          <text class="ui" x="358" y="225" font-size="14" font-weight="700" fill="#111111">
    <tspan x="358" dy="0">AI 审稿</tspan>
  </text>
          <text class="ui" x="326" y="278" font-size="11" font-weight="400" fill="#666666">
    <tspan x="326" dy="0">结构化稿件、论文与评审反馈</tspan>
  </text>
        </g><g>
          <rect x="534" y="190" width="198" height="142" rx="8" fill="#FFFFFF" stroke="#E8E8E8"/>
          <circle cx="566" cy="224" r="10" fill="#D4A017"/>
          <text class="ui" x="588" y="225" font-size="14" font-weight="700" fill="#111111">
    <tspan x="588" dy="0">Prism 写作</tspan>
  </text>
          <text class="ui" x="556" y="278" font-size="11" font-weight="400" fill="#666666">
    <tspan x="556" dy="0">面向 LaTeX</tspan><tspan x="556" dy="16">的写作与修订工作台</tspan>
  </text>
        </g><g>
          <rect x="764" y="190" width="198" height="142" rx="8" fill="#FFFFFF" stroke="#E8E8E8"/>
          <circle cx="796" cy="224" r="10" fill="#1A56DB"/>
          <text class="ui" x="818" y="225" font-size="14" font-weight="700" fill="#111111">
    <tspan x="818" dy="0">文献库</tspan>
  </text>
          <text class="ui" x="786" y="278" font-size="11" font-weight="400" fill="#666666">
    <tspan x="786" dy="0">收藏、暂存区、笔记与可复用</tspan><tspan x="786" dy="16">上下文</tspan>
  </text>
        </g><g>
          <rect x="994" y="190" width="198" height="142" rx="8" fill="#FFFFFF" stroke="#E8E8E8"/>
          <circle cx="1026" cy="224" r="10" fill="#2A7A2A"/>
          <text class="ui" x="1048" y="225" font-size="14" font-weight="700" fill="#111111">
    <tspan x="1048" dy="0">智能体工作区</tspan>
  </text>
          <text class="ui" x="1016" y="278" font-size="11" font-weight="400" fill="#666666">
    <tspan x="1016" dy="0">按功能隔离的会话、桥接与用</tspan><tspan x="1016" dy="16">量钩子</tspan>
  </text>
        </g>
    
</svg>
